<svg xmlns="http://www.w3.org/2000/svg" viewBox="0 0 582.65 289.22"><defs><style>.cls-1{fill:none;stroke:#010101;stroke-miterlimit:10;stroke-width:3px;}</style></defs><g id="Capa_2" data-name="Capa 2"><g id="Capa_1-2" data-name="Capa 1"><polygon class="cls-1" points="83.89 2.28 84 3.55 82.59 2.28 5.9 94.44 1.68 110.58 60.37 163.73 95.83 151.07 98.49 184.1 186.36 213.43 215.77 54.3 83.89 2.28"/><polygon class="cls-1" points="413.76 190.46 386.58 60.99 386.76 60.78 214.69 60.78 174.69 274.25 208.17 274.25 310.49 151.96 381.9 200.37 413.76 190.46"/><polygon class="cls-1" points="398.09 115.79 386.58 60.99 386.76 60.78 214.69 60.78 174.69 274.25 208.17 274.25 310.49 151.96 360.86 186.1 350.76 228.92 389.49 264.64 434.27 178.5 398.09 115.79"/><polygon class="cls-1" points="413.76 190.46 386.58 60.99 386.76 60.78 214.69 60.78 174.69 274.25 208.17 274.25 310.49 151.96 381.9 200.37 413.76 190.46"/><polygon class="cls-1" points="434.27 178.5 398.09 115.79 386.58 60.99 386.76 60.78 214.69 60.78 174.69 274.25 208.17 274.25 310.49 151.96 360.86 186.1 354.42 213.43 313.56 213.43 313.56 264.64 387.98 264.64 387.98 263.24 389.49 264.64 434.27 178.5"/><polygon class="cls-1" points="398.09 115.79 386.58 60.99 386.76 60.78 214.69 60.78 181.7 236.85 154.22 286.99 208.17 274.25 208.17 274.25 208.17 274.25 208.17 274.25 208.17 274.25 310.49 151.96 360.86 186.1 354.42 213.43 313.56 213.43 313.56 264.64 387.98 264.64 387.98 263.24 389.49 264.64 434.27 178.5 398.09 115.79"/><line class="cls-1" x1="98.49" y1="184.1" x2="186.36" y2="213.43"/><polygon class="cls-1" points="457.45 107.28 396.84 107.28 386.56 60.72 457.45 107.28"/><polygon class="cls-1" points="492.07 199.98 455.68 189.14 402.88 107.28 456.85 107.28 492.07 199.98"/><polygon class="cls-1" points="564.73 195.29 489.9 199.98 471.4 179.78 579.2 179.78 564.73 195.29"/></g></g></svg>